<svg width="593" height="144" viewBox="0 0 593 144" fill="none" xmlns="http://www.w3.org/2000/svg">
<g clip-path="url(#clip0_5_93)">
<g filter="url(#filter0_d_5_93)">
<path fill-rule="evenodd" clip-rule="evenodd" d="M52.401 49.1323C47.4777 42.6705 39.7011 38.5 30.9505 38.5C16.0661 38.5 4 50.5661 4 65.4505C4 80.3348 16.0661 92.401 30.9505 92.401C39.7011 92.401 47.4777 88.2304 52.401 81.7687C48.95 77.2393 46.901 71.5842 46.901 65.4505C46.901 59.3168 48.95 53.6617 52.401 49.1323ZM46.901 65.4505C46.901 74.2597 39.7597 81.401 30.9505 81.401C22.1413 81.401 15 74.2597 15 65.4505C15 56.6413 22.1413 49.5 30.9505 49.5C39.7597 49.5 46.901 56.6413 46.901 65.4505Z" fill="#0085C7"/>
<path d="M75.5821 81.5547C83.7129 80.6909 90.047 73.8104 90.047 65.4505C90.047 56.5059 82.796 49.2549 73.8514 49.2549C64.9069 49.2549 57.6559 56.5059 57.6559 65.4505C57.6559 73.8073 63.9852 80.6858 72.1116 81.5537C66.6359 81.8929 61.6179 83.8238 57.5311 86.8993C51.0705 81.9759 46.901 74.2001 46.901 65.4505C46.901 50.5661 58.9671 38.5 73.8514 38.5C88.7358 38.5 100.802 50.5661 100.802 65.4505C100.802 74.2305 96.6033 82.0299 90.1044 86.9505C86.0164 83.8553 81.0181 81.8992 75.5821 81.5547Z" fill="#2D2D2D"/>
<path d="M14.7132 86.9623C8.20904 91.8836 4 99.6775 4 108.451C4 123.335 16.0661 135.401 30.9505 135.401C45.8348 135.401 57.901 123.335 57.901 108.451C57.901 99.6634 53.7129 91.8585 47.2191 86.9386C43.1356 90.035 38.1422 91.9942 32.7107 92.3444C40.825 93.1984 47.1461 100.061 47.1461 108.451C47.1461 117.395 39.8951 124.646 30.9505 124.646C22.0059 124.646 14.7549 117.395 14.7549 108.451C14.7549 100.12 21.1021 93.2214 29.2496 92.3482C23.809 92.0093 18.8058 90.0563 14.7132 86.9623Z" fill="#F4C300"/>
<path d="M57.8323 106.506C58.6198 98.4503 65.3325 92.2549 73.8515 92.2549C82.7961 92.2549 90.0471 99.5059 90.0471 108.451C90.0471 117.395 82.7961 124.646 73.8515 124.646C65.7327 124.646 58.7813 118.254 57.8587 109.974C57.5535 115.452 55.6123 120.493 52.5156 124.617C57.4149 131.141 65.1354 135.401 73.8515 135.401C88.7358 135.401 100.802 123.335 100.802 108.451C100.802 93.5662 88.7358 81.5 73.8515 81.5C65.0349 81.5 57.2448 85.6092 52.3568 92.0504C55.467 96.112 57.4475 101.088 57.8323 106.506Z" fill="#009F3D"/>
</g>
<path d="M73.5235 27.4505C73.5235 39.3649 63.8649 49.0235 51.9505 49.0235C40.036 49.0235 30.3774 39.3649 30.3774 27.4505C30.3774 15.536 40.036 5.87745 51.9505 5.87745C63.8649 5.87745 73.5235 15.536 73.5235 27.4505Z" stroke="#DF0024" stroke-width="10.7549"/>
</g>
<path d="M149.672 103.616C143.864 103.616 138.525 102.267 133.656 99.568C128.845 96.8693 125.003 93.1147 122.128 88.304C119.312 83.4347 117.904 77.9787 117.904 71.936C117.904 65.8933 119.312 60.4667 122.128 55.656C125.003 50.8453 128.845 47.0907 133.656 44.392C138.525 41.6933 143.864 40.344 149.672 40.344C155.48 40.344 160.789 41.6933 165.6 44.392C170.469 47.0907 174.283 50.8453 177.04 55.656C179.856 60.4667 181.264 65.8933 181.264 71.936C181.264 77.9787 179.856 83.4347 177.04 88.304C174.224 93.1147 170.411 96.8693 165.6 99.568C160.789 102.267 155.48 103.616 149.672 103.616ZM149.672 89.888C154.6 89.888 158.531 88.2453 161.464 84.96C164.456 81.6747 165.952 77.3333 165.952 71.936C165.952 66.48 164.456 62.1387 161.464 58.912C158.531 55.6267 154.6 53.984 149.672 53.984C144.685 53.984 140.696 55.5973 137.704 58.824C134.771 62.0507 133.304 66.4213 133.304 71.936C133.304 77.392 134.771 81.7627 137.704 85.048C140.696 88.2747 144.685 89.888 149.672 89.888ZM200.49 51.2V103H188.52V51.2H200.49ZM249.064 63.94L224.564 121.55H211.684L220.644 101.67L204.754 63.94H218.124L227.154 88.37L236.114 63.94H249.064ZM303.233 63.52C308.086 63.52 311.936 64.99 314.783 67.93C317.676 70.87 319.123 74.9533 319.123 80.18V103H307.223V81.79C307.223 79.27 306.546 77.3333 305.193 75.98C303.886 74.58 302.066 73.88 299.733 73.88C297.399 73.88 295.556 74.58 294.203 75.98C292.896 77.3333 292.243 79.27 292.243 81.79V103H280.343V81.79C280.343 79.27 279.666 77.3333 278.313 75.98C277.006 74.58 275.186 73.88 272.853 73.88C270.519 73.88 268.676 74.58 267.323 75.98C266.016 77.3333 265.363 79.27 265.363 81.79V103H253.393V63.94H265.363V68.84C266.576 67.2067 268.163 65.9233 270.123 64.99C272.083 64.01 274.299 63.52 276.773 63.52C279.713 63.52 282.326 64.15 284.613 65.41C286.946 66.67 288.766 68.4667 290.073 70.8C291.426 68.6533 293.269 66.9033 295.603 65.55C297.936 64.1967 300.479 63.52 303.233 63.52ZM339.464 69.47C340.631 67.65 342.241 66.18 344.294 65.06C346.348 63.94 348.751 63.38 351.504 63.38C354.724 63.38 357.641 64.1967 360.254 65.83C362.868 67.4633 364.921 69.7967 366.414 72.83C367.954 75.8633 368.724 79.3867 368.724 83.4C368.724 87.4133 367.954 90.96 366.414 94.04C364.921 97.0733 362.868 99.43 360.254 101.11C357.641 102.743 354.724 103.56 351.504 103.56C348.798 103.56 346.394 103 344.294 101.88C342.241 100.76 340.631 99.3133 339.464 97.54V121.62H327.494V63.94H339.464V69.47ZM356.544 83.4C356.544 80.4133 355.704 78.08 354.024 76.4C352.391 74.6733 350.361 73.81 347.934 73.81C345.554 73.81 343.524 74.6733 341.844 76.4C340.211 78.1267 339.394 80.4833 339.394 83.47C339.394 86.4567 340.211 88.8133 341.844 90.54C343.524 92.2667 345.554 93.13 347.934 93.13C350.314 93.13 352.344 92.2667 354.024 90.54C355.704 88.7667 356.544 86.3867 356.544 83.4ZM381.024 59.88C378.924 59.88 377.197 59.2733 375.844 58.06C374.537 56.8 373.884 55.26 373.884 53.44C373.884 51.5733 374.537 50.0333 375.844 48.82C377.197 47.56 378.924 46.93 381.024 46.93C383.077 46.93 384.757 47.56 386.064 48.82C387.417 50.0333 388.094 51.5733 388.094 53.44C388.094 55.26 387.417 56.8 386.064 58.06C384.757 59.2733 383.077 59.88 381.024 59.88ZM386.974 63.94V103H375.004V63.94H386.974ZM393.269 83.47C393.269 79.41 394.085 75.8633 395.719 72.83C397.399 69.7967 399.709 67.4633 402.649 65.83C405.635 64.1967 409.042 63.38 412.869 63.38C417.769 63.38 421.852 64.6633 425.119 67.23C428.432 69.7967 430.602 73.4133 431.629 78.08H418.889C417.815 75.0933 415.739 73.6 412.659 73.6C410.465 73.6 408.715 74.4633 407.409 76.19C406.102 77.87 405.449 80.2967 405.449 83.47C405.449 86.6433 406.102 89.0933 407.409 90.82C408.715 92.5 410.465 93.34 412.659 93.34C415.739 93.34 417.815 91.8467 418.889 88.86H431.629C430.602 93.4333 428.432 97.0267 425.119 99.64C421.805 102.253 417.722 103.56 412.869 103.56C409.042 103.56 405.635 102.743 402.649 101.11C399.709 99.4767 397.399 97.1433 395.719 94.11C394.085 91.0767 393.269 87.53 393.269 83.47ZM492.651 41.224V103H477.603V77.568H454.195V103H439.147V41.224H454.195V65.424H477.603V41.224H492.651ZM540.969 63.94V103H528.999V97.68C527.785 99.4067 526.129 100.807 524.029 101.88C521.975 102.907 519.689 103.42 517.169 103.42C514.182 103.42 511.545 102.767 509.259 101.46C506.972 100.107 505.199 98.17 503.939 95.65C502.679 93.13 502.049 90.1667 502.049 86.76V63.94H513.949V85.15C513.949 87.7633 514.625 89.7933 515.979 91.24C517.332 92.6867 519.152 93.41 521.439 93.41C523.772 93.41 525.615 92.6867 526.969 91.24C528.322 89.7933 528.999 87.7633 528.999 85.15V63.94H540.969ZM561.537 69.47C562.657 67.65 564.267 66.18 566.367 65.06C568.467 63.94 570.87 63.38 573.577 63.38C576.797 63.38 579.713 64.1967 582.327 65.83C584.94 67.4633 586.993 69.7967 588.487 72.83C590.027 75.8633 590.797 79.3867 590.797 83.4C590.797 87.4133 590.027 90.96 588.487 94.04C586.993 97.0733 584.94 99.43 582.327 101.11C579.713 102.743 576.797 103.56 573.577 103.56C570.823 103.56 568.42 103.023 566.367 101.95C564.313 100.83 562.703 99.36 561.537 97.54V103H549.567V51.2H561.537V69.47ZM578.617 83.4C578.617 80.4133 577.777 78.08 576.097 76.4C574.463 74.6733 572.433 73.81 570.007 73.81C567.627 73.81 565.597 74.6733 563.917 76.4C562.283 78.1267 561.467 80.4833 561.467 83.47C561.467 86.4567 562.283 88.8133 563.917 90.54C565.597 92.2667 567.627 93.13 570.007 93.13C572.387 93.13 574.417 92.2667 576.097 90.54C577.777 88.7667 578.617 86.3867 578.617 83.4Z" fill="black"/>
<defs>
<filter id="filter0_d_5_93" x="0" y="38.5" width="104.802" height="104.901" filterUnits="userSpaceOnUse" color-interpolation-filters="sRGB">
<feFlood flood-opacity="0" result="BackgroundImageFix"/>
<feColorMatrix in="SourceAlpha" type="matrix" values="0 0 0 0 0 0 0 0 0 0 0 0 0 0 0 0 0 0 127 0" result="hardAlpha"/>
<feOffset dy="4"/>
<feGaussianBlur stdDeviation="2"/>
<feComposite in2="hardAlpha" operator="out"/>
<feColorMatrix type="matrix" values="0 0 0 0 0 0 0 0 0 0 0 0 0 0 0 0 0 0 0.25 0"/>
<feBlend mode="normal" in2="BackgroundImageFix" result="effect1_dropShadow_5_93"/>
<feBlend mode="normal" in="SourceGraphic" in2="effect1_dropShadow_5_93" result="shape"/>
</filter>
<clipPath id="clip0_5_93">
<rect width="105" height="143" fill="white" transform="translate(0 0.5)"/>
</clipPath>
</defs>
</svg>
